<svg width="417" height="25" fill="none" xmlns="http://www.w3.org/2000/svg"><path d="M416.142 5.207a7.03 7.03 0 0 1-2.257.738c.812-.581 1.433-1.501 1.729-2.597a7.44 7.44 0 0 1-2.5 1.13c-.715-.913-1.736-1.488-2.869-1.488-2.173 0-3.933 2.101-3.933 4.69 0 .374.037.731.103 1.07-3.268-.182-6.166-2.056-8.103-4.888a5.311 5.311 0 0 0-.534 2.363c0 1.632.696 3.063 1.748 3.904a3.435 3.435 0 0 1-1.779-.585v.057c0 2.275 1.354 4.173 3.152 4.605a3.439 3.439 0 0 1-1.033.164c-.252 0-.493-.03-.734-.083.506 1.863 1.954 3.22 3.68 3.26-1.342 1.256-3.043 2.004-4.875 2.004-.313 0-.624-.018-.937-.063 1.748 1.33 3.812 2.109 6.041 2.109 7.231 0 11.183-7.15 11.183-13.342 0-.198 0-.399-.012-.6a8.874 8.874 0 0 0 1.966-2.43l-.036-.018ZM280.629 6.819c-.238-1.01-.898-1.8-1.747-2.08-1.563-.5-7.849-.5-7.849-.5s-6.273-.011-7.853.5c-.845.28-1.507 1.07-1.743 2.08a37 37 0 0 0-.437 5.793 37.512 37.512 0 0 0 .437 5.766c.236 1.009.898 1.8 1.743 2.084 1.563.5 7.853.5 7.853.5s6.27 0 7.849-.5c.849-.284 1.509-1.075 1.747-2.084.287-1.901.428-3.834.418-5.766.01-1.945-.127-3.88-.418-5.793Zm-11.604 9.374V9.016l5.232 3.596-5.232 3.58ZM136.265 1.741c-2.519 0-2.833.015-3.818.065-.99.058-1.66.24-2.25.514a4.554 4.554 0 0 0-1.641 1.279 5.556 5.556 0 0 0-1.071 1.958c-.229.705-.382 1.504-.431 2.685C127.009 9.42 127 9.794 127 12.8s.012 3.38.054 4.557c.049 1.178.202 1.98.431 2.686.239.727.556 1.346 1.071 1.958.513.616 1.031.997 1.641 1.278.59.27 1.263.457 2.25.515.986.053 1.299.064 3.818.064 2.518 0 2.832-.014 3.818-.064.987-.058 1.659-.245 2.25-.515a4.55 4.55 0 0 0 1.64-1.278 5.526 5.526 0 0 0 1.071-1.958c.227-.705.383-1.508.432-2.686.044-1.177.053-1.551.053-4.557 0-3.006-.012-3.381-.053-4.558-.049-1.177-.206-1.984-.432-2.685-.238-.727-.555-1.347-1.071-1.958-.512-.616-1.028-.998-1.64-1.279-.591-.273-1.263-.456-2.25-.514-.986-.054-1.3-.065-3.818-.065Zm0 1.991c2.473 0 2.768.015 3.746.064.902.05 1.393.23 1.719.383.435.2.739.438 1.068.827.322.385.522.752.69 1.271.127.39.278.976.32 2.052.042 1.167.054 1.52.054 4.471 0 2.952-.012 3.305-.057 4.472-.049 1.077-.199 1.663-.326 2.052-.176.519-.371.882-.695 1.274a2.927 2.927 0 0 1-1.067.824c-.322.152-.821.332-1.726.383-.982.05-1.272.064-3.752.064-2.48 0-2.769-.014-3.752-.068-.902-.058-1.4-.238-1.726-.39a2.926 2.926 0 0 1-1.065-.828 3.445 3.445 0 0 1-.693-1.275c-.13-.384-.278-.979-.326-2.06-.033-1.159-.049-1.518-.049-4.464 0-2.945.016-3.305.049-4.479.048-1.08.196-1.673.326-2.059.16-.526.368-.885.693-1.275.323-.385.625-.633 1.065-.828.326-.152.812-.331 1.717-.385.983-.043 1.272-.058 3.748-.058l.039.032Zm0 3.392c-2.63 0-4.757 2.542-4.757 5.677 0 3.14 2.13 5.677 4.757 5.677 2.629 0 4.756-2.541 4.756-5.677 0-3.139-2.129-5.677-4.756-5.677Zm0 9.364c-1.708 0-3.089-1.649-3.089-3.687s1.381-3.686 3.089-3.686c1.707 0 3.088 1.648 3.088 3.686 0 2.038-1.381 3.687-3.088 3.687Zm6.06-9.59c0 .734-.501 1.327-1.114 1.327-.616 0-1.113-.594-1.113-1.328 0-.73.501-1.325 1.113-1.325s1.114.595 1.114 1.325ZM10.39 13.761l.576-4.27H7.36v-2.77c0-1.167.503-2.306 2.118-2.306h1.639V.78S9.63.492 8.208.492C5.24.492 3.3 2.537 3.3 6.238v3.255H0v4.269h3.3v10.321h4.061V13.762h3.028Z" fill="#fff"/></svg>